<svg width="1108" height="719" viewBox="0 0 1108 719" fill="none" xmlns="http://www.w3.org/2000/svg">
<path d="M857.896 349.649L864.786 346.949C865.446 346.689 866.096 346.409 866.786 346.139C854.035 341.444 843.261 332.55 836.235 320.92C829.21 309.289 826.351 295.614 828.129 282.143C829.907 268.673 836.216 256.208 846.018 246.798C855.821 237.389 868.533 231.595 882.066 230.369L877.266 254.569L895.486 230.649H895.646C911.373 232.811 925.598 241.132 935.192 253.78C944.786 266.429 948.964 282.371 946.806 298.099C946.656 299.229 946.416 300.329 946.206 301.439C951.816 297.009 957.076 292.119 961.016 286.439C969.016 274.899 971.726 260.679 974.486 243.269C979.956 208.789 984.886 173.929 989.326 139.089C975.692 134.975 963.972 126.134 956.274 114.153C948.575 102.173 945.402 87.8393 947.326 73.7289C947.576 71.9089 947.926 70.1389 948.326 68.3889C948.426 67.9489 948.526 67.5089 948.636 67.0789C949.066 65.3889 949.546 63.7289 950.106 62.0789C950.196 61.8089 950.316 61.5589 950.406 61.2989C950.906 59.9289 951.406 58.5789 952.056 57.2989C952.276 56.7989 952.496 56.2989 952.726 55.8289C953.416 54.3989 954.146 52.9989 954.946 51.6389C955.216 51.1889 955.506 50.7589 955.776 50.3089C956.396 49.3089 957.046 48.3089 957.716 47.3789C958.076 46.8789 958.426 46.3789 958.796 45.8889L959.066 45.4989C967.556 34.3857 979.673 26.5994 993.31 23.4935C1006.95 20.3877 1021.24 22.1588 1033.71 28.4989L1027.47 59.9889L1045.47 36.3489C1055.15 44.5516 1061.95 55.6348 1064.89 67.98C1067.83 80.3252 1066.74 93.2858 1061.79 104.969H1061.86C1061.69 105.369 1061.48 105.749 1061.31 106.149C1060.98 106.889 1060.64 107.619 1060.31 108.349C1059.85 109.279 1059.31 110.189 1058.86 111.089C1058.48 111.769 1058.11 112.449 1057.7 113.089C1057.11 114.089 1056.47 114.989 1055.83 115.919C1055.45 116.459 1055.1 117.019 1054.71 117.549C1053.71 118.939 1052.59 120.269 1051.45 121.549C1051.05 121.999 1050.62 122.409 1050.2 122.849C1049.39 123.709 1048.58 124.559 1047.72 125.369C1047.19 125.869 1046.63 126.369 1046.08 126.829C1045.29 127.529 1044.48 128.209 1043.65 128.829C1043.06 129.299 1042.46 129.749 1041.86 130.189C1040.99 130.819 1040.11 131.409 1039.22 131.999C1038.62 132.389 1038.02 132.779 1037.41 133.149C1036.41 133.759 1035.36 134.319 1034.31 134.869C1033.78 135.139 1033.31 135.439 1032.72 135.699C1031.14 136.469 1029.52 137.179 1027.87 137.809C1027.56 137.929 1027.23 138.019 1026.92 138.129C1025.54 138.629 1024.15 139.129 1022.74 139.479C1022.13 139.649 1021.51 139.789 1020.89 139.939C1019.74 140.219 1018.58 140.479 1017.41 140.699C1016.74 140.819 1016.05 140.929 1015.34 141.029C1014.19 141.199 1013.03 141.329 1011.86 141.429C1011.17 141.489 1010.49 141.549 1009.79 141.589C1008.53 141.649 1007.26 141.659 1005.99 141.649C1005.9 141.644 1005.82 141.644 1005.74 141.649C1003.86 156.316 1001.88 170.982 999.816 185.649C1004.67 179.102 1010.8 173.614 1017.85 169.523C1024.89 165.432 1032.7 162.823 1040.79 161.857C1048.88 160.891 1057.08 161.587 1064.89 163.904C1072.7 166.22 1079.96 170.108 1086.22 175.329L1070.54 201.909L1095.75 185.319C1105.28 197.934 1109.41 213.817 1107.25 229.479C1106.51 234.978 1104.99 240.345 1102.75 245.419C1097.93 256.406 1089.93 265.692 1079.77 272.074C1069.62 278.455 1057.78 281.637 1045.79 281.206C1033.8 280.775 1022.22 276.75 1012.55 269.656C1002.88 262.561 995.566 252.723 991.556 241.419C991.326 242.899 991.106 244.419 990.876 245.879C988.436 261.229 985.406 280.339 974.646 295.879C967.356 306.439 957.316 314.239 947.556 321.099C941.209 325.566 934.716 329.822 928.076 333.869C921.106 340.332 912.697 345.042 903.546 347.609C892.879 353.069 881.982 358.006 870.856 362.419L863.906 365.139C857.656 367.579 851.256 370.079 844.906 372.739C845.906 372.829 846.906 372.909 847.906 373.039C860.488 374.767 872.196 380.449 881.338 389.266C890.48 398.083 896.583 409.577 898.766 422.089L856.456 445.199L898.636 443.309C896.947 452.662 893.03 461.471 887.216 468.989C877.678 481.335 863.698 489.471 848.251 491.664C832.805 493.856 817.113 489.933 804.516 480.729L806.616 484.639C808.016 487.219 809.396 489.789 810.736 492.339C829.066 527.079 830.396 557.079 814.486 576.829L801.486 566.379C816.976 547.159 804.686 516.609 795.986 500.109C794.666 497.609 793.306 495.109 791.986 492.549C780.216 470.719 766.866 445.979 772.216 419.649C780.216 379.949 823.266 363.149 857.896 349.649Z" fill="#A61FA9" fill-opacity="0.5"/>
<mask id="path-2-inside-1_0:1" fill="white">
<path d="M269.6 519.01L264.22 516.9C263.7 516.7 263.22 516.47 262.68 516.27C272.635 512.599 281.044 505.651 286.527 496.568C292.01 487.484 294.241 476.806 292.852 466.287C291.463 455.769 286.537 446.036 278.884 438.687C271.231 431.338 261.306 426.811 250.74 425.85L254.49 444.75L240.27 426.07H240.14C234.054 426.901 228.191 428.923 222.887 432.021C217.582 435.118 212.94 439.231 209.226 444.123C205.511 449.015 202.797 454.591 201.238 460.532C199.679 466.474 199.306 472.664 200.14 478.75C200.26 479.64 200.45 480.49 200.61 481.36C196.198 478.043 192.302 474.09 189.05 469.63C182.82 460.63 180.68 449.51 178.52 435.92C174.29 408.99 170.45 381.77 167 354.59C177.644 351.372 186.791 344.464 192.797 335.107C198.804 325.75 201.276 314.557 199.77 303.54C199.57 302.12 199.3 300.74 198.98 299.37L198.74 298.37C198.4 297.05 198.03 295.75 197.59 294.49C197.52 294.28 197.43 294.08 197.35 293.88C196.96 292.81 196.53 291.76 196.07 290.73C195.89 290.35 195.72 289.96 195.54 289.58C195 288.47 194.43 287.38 193.81 286.32C193.6 285.96 193.37 285.62 193.16 285.32C192.67 284.54 192.16 283.77 191.64 283.03C191.36 282.64 191.09 282.24 190.8 281.86L190.59 281.56C183.959 272.882 174.499 266.799 163.852 264.366C153.205 261.933 142.042 263.303 132.3 268.24L137.18 292.84L123.11 274.38C115.549 280.787 110.234 289.442 107.941 299.083C105.647 308.723 106.495 318.845 110.36 327.97H110.31C110.44 328.28 110.6 328.58 110.74 328.89C111 329.47 111.26 330.04 111.54 330.61C111.9 331.33 112.28 332.04 112.68 332.74C112.97 333.28 113.26 333.81 113.58 334.33C114.04 335.08 114.58 335.81 115.04 336.54C115.34 336.96 115.61 337.4 115.92 337.81C116.72 338.89 117.57 339.93 118.46 340.94C118.77 341.29 119.11 341.61 119.46 341.94C120.09 342.61 120.73 343.27 121.4 343.94C121.81 344.34 122.25 344.71 122.68 345.08C123.3 345.633 123.93 346.163 124.57 346.67C125.03 347.03 125.5 347.38 125.97 347.73C126.65 348.22 127.34 348.73 128.03 349.14C128.5 349.45 128.97 349.75 129.45 350.04C130.24 350.52 131.05 350.95 131.87 351.38C132.29 351.6 132.69 351.83 133.11 352.04C134.35 352.64 135.61 353.19 136.9 353.68C137.14 353.78 137.4 353.84 137.64 353.93C138.71 354.32 139.8 354.68 140.91 354.99C141.38 355.12 141.91 355.23 142.35 355.34C143.25 355.56 144.15 355.77 145.07 355.94L146.68 356.2C147.58 356.33 148.49 356.43 149.4 356.51C149.94 356.56 150.47 356.6 151.02 356.63C152.02 356.68 153.02 356.69 154.02 356.68H154.21C155.677 368.16 157.217 379.63 158.83 391.09C155.049 385.969 150.262 381.676 144.762 378.472C139.262 375.268 133.165 373.223 126.846 372.46C120.527 371.698 114.119 372.235 108.015 374.039C101.911 375.843 96.2398 378.875 91.35 382.95L103.49 403.59L83.81 390.64C80.1186 395.516 77.4238 401.072 75.8796 406.99C74.3353 412.908 73.9719 419.072 74.81 425.13C75.3906 429.43 76.5791 433.625 78.34 437.59C82.099 446.17 88.3498 453.422 96.2813 458.405C104.213 463.389 113.459 465.874 122.82 465.537C132.181 465.201 141.225 462.059 148.779 456.519C156.332 450.98 162.046 443.298 165.18 434.47C165.36 435.62 165.53 436.79 165.71 437.95C167.61 449.95 169.98 464.87 178.38 477.03C184.08 485.27 191.92 491.36 199.54 496.72C204.5 500.213 209.57 503.547 214.75 506.72C220.196 511.767 226.763 515.448 233.91 517.46C242.23 521.72 250.75 525.6 259.45 529.02L264.87 531.15C269.75 533.05 274.75 535 279.68 537.08C278.9 537.15 278.11 537.21 277.32 537.32C267.498 538.666 258.357 543.098 251.218 549.977C244.079 556.855 239.31 565.825 237.6 575.59L270.6 593.59L237.66 592.12C239.11 599.89 242.506 607.167 247.529 613.269C252.553 619.372 259.042 624.102 266.389 627.018C273.736 629.934 281.702 630.941 289.543 629.945C297.385 628.948 304.846 625.981 311.23 621.32C310.68 622.32 310.14 623.32 309.59 624.37C308.5 626.37 307.42 628.37 306.37 630.37C292.06 657.5 291.02 680.94 303.45 696.37L313.58 688.21C301.48 673.21 311.08 649.34 317.88 636.45C318.88 634.5 319.97 632.53 321.04 630.55C330.23 613.55 340.65 594.18 336.5 573.61C330.29 542.67 296.64 529.59 269.6 519.01Z"/>
</mask>
<path d="M269.6 519.01L264.22 516.9C263.7 516.7 263.22 516.47 262.68 516.27C272.635 512.599 281.044 505.651 286.527 496.568C292.01 487.484 294.241 476.806 292.852 466.287C291.463 455.769 286.537 446.036 278.884 438.687C271.231 431.338 261.306 426.811 250.74 425.85L254.49 444.75L240.27 426.07H240.14C234.054 426.901 228.191 428.923 222.887 432.021C217.582 435.118 212.94 439.231 209.226 444.123C205.511 449.015 202.797 454.591 201.238 460.532C199.679 466.474 199.306 472.664 200.14 478.75C200.26 479.64 200.45 480.49 200.61 481.36C196.198 478.043 192.302 474.09 189.05 469.63C182.82 460.63 180.68 449.51 178.52 435.92C174.29 408.99 170.45 381.77 167 354.59C177.644 351.372 186.791 344.464 192.797 335.107C198.804 325.75 201.276 314.557 199.77 303.54C199.57 302.12 199.3 300.74 198.98 299.37L198.74 298.37C198.4 297.05 198.03 295.75 197.59 294.49C197.52 294.28 197.43 294.08 197.35 293.88C196.96 292.81 196.53 291.76 196.07 290.73C195.89 290.35 195.72 289.96 195.54 289.58C195 288.47 194.43 287.38 193.81 286.32C193.6 285.96 193.37 285.62 193.16 285.32C192.67 284.54 192.16 283.77 191.64 283.03C191.36 282.64 191.09 282.24 190.8 281.86L190.59 281.56C183.959 272.882 174.499 266.799 163.852 264.366C153.205 261.933 142.042 263.303 132.3 268.24L137.18 292.84L123.11 274.38C115.549 280.787 110.234 289.442 107.941 299.083C105.647 308.723 106.495 318.845 110.36 327.97H110.31C110.44 328.28 110.6 328.58 110.74 328.89C111 329.47 111.26 330.04 111.54 330.61C111.9 331.33 112.28 332.04 112.68 332.74C112.97 333.28 113.26 333.81 113.58 334.33C114.04 335.08 114.58 335.81 115.04 336.54C115.34 336.96 115.61 337.4 115.92 337.81C116.72 338.89 117.57 339.93 118.46 340.94C118.77 341.29 119.11 341.61 119.46 341.94C120.09 342.61 120.73 343.27 121.4 343.94C121.81 344.34 122.25 344.71 122.68 345.08C123.3 345.633 123.93 346.163 124.57 346.67C125.03 347.03 125.5 347.38 125.97 347.73C126.65 348.22 127.34 348.73 128.03 349.14C128.5 349.45 128.97 349.75 129.45 350.04C130.24 350.52 131.05 350.95 131.87 351.38C132.29 351.6 132.69 351.83 133.11 352.04C134.35 352.64 135.61 353.19 136.9 353.68C137.14 353.78 137.4 353.84 137.64 353.93C138.71 354.32 139.8 354.68 140.91 354.99C141.38 355.12 141.91 355.23 142.35 355.34C143.25 355.56 144.15 355.77 145.07 355.94L146.68 356.2C147.58 356.33 148.49 356.43 149.4 356.51C149.94 356.56 150.47 356.6 151.02 356.63C152.02 356.68 153.02 356.69 154.02 356.68H154.21C155.677 368.16 157.217 379.63 158.83 391.09C155.049 385.969 150.262 381.676 144.762 378.472C139.262 375.268 133.165 373.223 126.846 372.46C120.527 371.698 114.119 372.235 108.015 374.039C101.911 375.843 96.2398 378.875 91.35 382.95L103.49 403.59L83.81 390.64C80.1186 395.516 77.4238 401.072 75.8796 406.99C74.3353 412.908 73.9719 419.072 74.81 425.13C75.3906 429.43 76.5791 433.625 78.34 437.59C82.099 446.17 88.3498 453.422 96.2813 458.405C104.213 463.389 113.459 465.874 122.82 465.537C132.181 465.201 141.225 462.059 148.779 456.519C156.332 450.98 162.046 443.298 165.18 434.47C165.36 435.62 165.53 436.79 165.71 437.95C167.61 449.95 169.98 464.87 178.38 477.03C184.08 485.27 191.92 491.36 199.54 496.72C204.5 500.213 209.57 503.547 214.75 506.72C220.196 511.767 226.763 515.448 233.91 517.46C242.23 521.72 250.75 525.6 259.45 529.02L264.87 531.15C269.75 533.05 274.75 535 279.68 537.08C278.9 537.15 278.11 537.21 277.32 537.32C267.498 538.666 258.357 543.098 251.218 549.977C244.079 556.855 239.31 565.825 237.6 575.59L270.6 593.59L237.66 592.12C239.11 599.89 242.506 607.167 247.529 613.269C252.553 619.372 259.042 624.102 266.389 627.018C273.736 629.934 281.702 630.941 289.543 629.945C297.385 628.948 304.846 625.981 311.23 621.32C310.68 622.32 310.14 623.32 309.59 624.37C308.5 626.37 307.42 628.37 306.37 630.37C292.06 657.5 291.02 680.94 303.45 696.37L313.58 688.21C301.48 673.21 311.08 649.34 317.88 636.45C318.88 634.5 319.97 632.53 321.04 630.55C330.23 613.55 340.65 594.18 336.5 573.61C330.29 542.67 296.64 529.59 269.6 519.01Z" fill="#A61FA9" fill-opacity="0.7" stroke="#B019A1" stroke-width="2" mask="url(#path-2-inside-1_0:1)"/>
<path d="M554 718.18C859.966 718.18 1108 707.659 1108 694.68C1108 681.701 859.966 671.18 554 671.18C248.034 671.18 0 681.701 0 694.68C0 707.659 248.034 718.18 554 718.18Z" fill="#84327C"/>
<path opacity="0.1" d="M44 609.37C46.4205 609.493 48.8314 608.985 50.9968 607.897C53.1623 606.808 55.0081 605.176 56.3536 603.161C57.6992 601.145 58.4984 598.814 58.673 596.397C58.8477 593.98 58.3918 591.558 57.35 589.37C56.2359 590.122 55.2782 591.083 54.53 592.2C53.53 593.71 52.92 595.45 51.75 596.84C49.56 599.41 45.83 600.25 42.44 600.09C39.05 599.93 35.78 598.98 32.44 598.67C31.97 598.67 31.5 598.59 31.03 598.58C31.7246 601.544 33.3666 604.201 35.7071 606.148C38.0475 608.095 40.9589 609.226 44 609.37V609.37Z" fill="#FDF5FD"/>
<path opacity="0.1" d="M78.07 632.04C80.4688 632.163 82.8589 631.667 85.0106 630.6C87.1623 629.532 89.0031 627.929 90.356 625.944C91.709 623.959 92.5285 621.66 92.7358 619.267C92.9432 616.874 92.5313 614.468 91.5399 612.28C90.3739 613.038 89.357 614.004 88.5399 615.13C87.4499 616.67 86.7699 618.44 85.5399 619.86C83.1799 622.5 79.2 623.43 75.61 623.34C72.02 623.25 68.79 622.41 65.33 622.15C66.1745 624.911 67.852 627.343 70.1327 629.114C72.4134 630.884 75.1858 631.906 78.07 632.04V632.04Z" fill="#FDF5FD"/>
<path opacity="0.1" d="M71.14 659.29C72.5346 662.066 74.8128 664.299 77.616 665.638C80.4191 666.977 83.5879 667.345 86.6235 666.685C89.659 666.026 92.3889 664.375 94.3834 661.993C96.3778 659.612 97.5235 656.634 97.64 653.53C97.7399 651.59 97.4298 649.652 96.73 647.84C95.5738 648.596 94.5358 649.52 93.65 650.58C92.31 652.21 91.44 654.05 89.89 655.58C87.02 658.4 82.39 659.58 78.27 659.67C75.888 659.68 73.5075 659.553 71.14 659.29V659.29Z" fill="#FDF5FD"/>
<path d="M745.57 331.15C738.957 328.883 732.29 326.783 725.57 324.85C726.677 320.323 727.707 315.773 728.66 311.2C743.8 237.69 733.9 178.47 700.09 158.98C667.67 140.28 614.65 159.78 561.09 206.37C555.81 210.983 550.653 215.717 545.62 220.57C542.24 217.337 538.807 214.167 535.32 211.06C479.21 161.23 423 140.24 389.18 159.79C356.79 178.54 347.18 234.21 360.83 303.88C362.163 310.78 363.693 317.64 365.42 324.46C357.47 326.72 349.78 329.13 342.42 331.7C276.63 354.59 234.61 390.59 234.61 427.88C234.61 466.39 279.72 505.02 348.25 528.44C353.81 530.327 359.41 532.08 365.05 533.7C363.223 541.033 361.597 548.427 360.17 555.88C347.17 624.34 357.33 678.7 389.63 697.33C423 716.59 479 696.79 533.52 649.13C537.83 645.36 542.15 641.36 546.52 637.18C551.973 642.44 557.57 647.547 563.31 652.5C616.13 697.95 668.31 716.31 700.57 697.62C733.9 678.33 744.73 619.93 730.67 548.89C729.603 543.463 728.36 537.927 726.94 532.28C730.88 531.12 734.733 529.917 738.5 528.67C809.74 505.07 856.1 466.91 856.1 427.88C856.1 390.45 812.72 354.26 745.6 331.15H745.57Z" fill="#F66CF9" fill-opacity="0.8"/>
<path d="M730.12 503.47C726.72 504.6 723.24 505.68 719.68 506.74C710.994 479.811 700.48 453.506 688.21 428.01C700.012 402.853 710.118 376.936 718.46 350.43C724.81 352.27 730.99 354.21 736.93 356.26C794.44 376.05 829.52 405.32 829.52 427.88C829.52 451.88 791.63 483.09 730.12 503.47ZM704.6 554.05C710.82 585.46 711.7 613.86 707.6 636.05C703.9 656 696.46 669.3 687.26 674.63C667.67 685.96 625.79 671.23 580.62 632.36C575.44 627.9 570.23 623.15 564.99 618.11C583.822 597.261 601.225 575.164 617.08 551.97C645.401 549.57 673.524 545.227 701.25 538.97C702.517 544.09 703.64 549.09 704.62 553.97L704.6 554.05ZM446.48 672.69C427.34 679.45 412.1 679.64 402.89 674.33C383.29 663.02 375.14 619.33 386.26 560.83C387.593 553.917 389.103 547.04 390.79 540.2C418.401 546.128 446.382 550.181 474.54 552.33C490.859 575.443 508.681 597.457 527.89 618.23C524.03 621.97 520.083 625.607 516.05 629.14C491.94 650.22 467.77 665.14 446.48 672.69V672.69ZM356.84 503.32C326.53 492.96 301.51 479.5 284.35 464.82C268.94 451.62 261.16 438.51 261.16 427.88C261.16 405.25 294.9 376.38 351.16 356.77C358.227 354.31 365.357 352.067 372.55 350.04C380.907 376.839 391.025 403.056 402.84 428.52C390.878 454.349 380.636 480.94 372.18 508.12C367.02 506.647 361.907 505.047 356.84 503.32ZM386.89 298.78C375.21 239.09 382.96 194.06 402.48 182.78C423.27 170.78 469.24 187.9 517.7 230.93C520.8 233.68 523.91 236.56 527.02 239.53C507.948 260.176 490.266 282.064 474.09 305.05C446.197 307.551 418.496 311.857 391.16 317.94C389.567 311.593 388.143 305.21 386.89 298.79V298.78ZM655 364.97C648.927 354.477 642.63 344.117 636.11 333.89C655.94 336.4 674.93 339.72 692.77 343.8C687.045 361.96 680.407 379.82 672.88 397.31C667.14 386.41 661.18 375.63 655 364.97ZM545.64 258.5C558.564 272.59 570.769 287.322 582.21 302.64C557.737 301.487 533.253 301.487 508.76 302.64C520.83 286.72 533.2 271.92 545.64 258.51V258.5ZM435.64 365.15C429.54 375.73 423.69 386.443 418.09 397.29C410.36 378.96 403.75 360.93 398.35 343.52C416.08 339.52 434.99 336.31 454.69 333.84C448.077 344.133 441.72 354.57 435.62 365.15H435.64ZM455.25 523.8C436.022 521.713 416.913 518.639 398 514.59C403.49 496.88 410.25 478.46 418.15 459.73C423.77 470.59 429.64 481.31 435.76 491.89C441.987 502.683 448.477 513.32 455.23 523.8H455.25ZM546.39 599.13C533.79 585.59 521.24 570.59 509 554.38C520.9 554.853 533.02 555.09 545.36 555.09C558.027 555.09 570.53 554.81 582.87 554.25C571.479 569.825 559.296 584.804 546.37 599.13H546.39ZM673.08 458.78C680.997 476.625 687.979 494.869 694 513.44C674.853 517.748 655.493 521.049 636 523.33C642.567 512.91 648.927 502.367 655.08 491.7C661.333 480.86 667.333 469.887 673.08 458.78ZM632.08 478.44C622.667 494.787 612.73 510.82 602.27 526.54C583.83 527.86 564.78 528.54 545.36 528.54C525.94 528.54 507.21 527.94 489.09 526.76C478.363 511.093 468.233 495.037 458.7 478.59C449.167 462.143 440.33 445.45 432.19 428.51C440.37 411.49 449.18 394.79 458.62 378.41C468.047 362.037 478.09 346.037 488.75 330.41C507.24 329.01 526.18 328.28 545.34 328.28C564.5 328.28 583.56 329.02 602.03 330.42C612.57 346 622.57 361.937 632.03 378.23C641.49 394.523 650.42 411.147 658.82 428.1C650.52 445.18 641.617 461.947 632.11 478.4L632.08 478.44ZM686.85 181.98C707.66 193.98 715.75 242.38 702.68 305.85C701.82 309.977 700.887 314.093 699.88 318.2C672.504 311.994 644.746 307.607 616.79 305.07C600.77 282.064 583.22 260.161 564.26 239.51C568.927 235.017 573.69 230.647 578.55 226.4C624.43 186.47 667.31 170.71 686.85 181.98Z" fill="white" fill-opacity="0.81"/>
<path d="M545.34 372.38C556.317 372.38 567.047 375.635 576.174 381.733C585.301 387.832 592.415 396.5 596.615 406.641C600.816 416.782 601.915 427.942 599.774 438.708C597.632 449.473 592.346 459.363 584.584 467.124C576.823 474.886 566.933 480.172 556.168 482.314C545.402 484.455 534.242 483.356 524.101 479.155C513.96 474.955 505.292 467.841 499.193 458.714C493.095 449.587 489.84 438.857 489.84 427.88C489.839 420.591 491.273 413.374 494.062 406.64C496.851 399.905 500.939 393.787 506.093 388.633C511.247 383.479 517.365 379.391 524.099 376.602C530.834 373.813 538.051 372.379 545.34 372.38" fill="#A0348F"/>
<path d="M559.26 20.4C559.26 23.6832 558.286 26.8926 556.462 29.6225C554.638 32.3523 552.046 34.48 549.013 35.7364C545.979 36.9928 542.642 37.3215 539.422 36.681C536.201 36.0405 533.244 34.4595 530.922 32.138C528.601 29.8164 527.02 26.8586 526.379 23.6385C525.739 20.4184 526.067 17.0807 527.324 14.0475C528.58 11.0142 530.708 8.42164 533.438 6.59761C536.167 4.77358 539.377 3.8 542.66 3.8C544.843 3.7894 547.006 4.21154 549.025 5.04202C551.044 5.87249 552.878 7.09483 554.422 8.6384C555.965 10.182 557.188 12.0161 558.018 14.0349C558.848 16.0537 559.271 18.2171 559.26 20.4V20.4Z" fill="#3F3D56"/>
<path d="M529.4 24.59C528.084 22.2121 527.371 19.5479 527.324 16.8307C527.277 14.1134 527.897 11.4261 529.13 9.00411C530.363 6.58212 532.171 4.49937 534.395 2.93831C536.62 1.37725 539.193 0.385521 541.89 0.049996C539.603 -0.0300954 537.324 0.36354 535.197 1.20618C533.069 2.04883 531.138 3.32228 529.526 4.94657C527.914 6.57086 526.656 8.5109 525.829 10.6449C525.003 12.7788 524.627 15.0606 524.724 17.347C524.822 19.6333 525.391 21.8748 526.396 23.9306C527.401 25.9865 528.82 27.8124 530.565 29.2936C532.309 30.7747 534.341 31.8793 536.532 32.5377C538.724 33.1962 541.028 33.3945 543.3 33.12C540.445 33.0145 537.665 32.174 535.23 30.6797C532.795 29.1853 530.787 27.0878 529.4 24.59V24.59Z" fill="#3F3D56"/>
<path d="M566.38 43.52H521.91V112.89H566.38V43.52Z" fill="#3F3D56"/>
<path opacity="0.1" d="M566.38 43.52H521.91V112.89H566.38V43.52Z" fill="black"/>
<path d="M451.66 295.2C451.66 295.2 446.91 308.25 435.66 310.03C424.41 311.81 417.87 314.77 417.87 314.77L444.55 331.96L458.78 330.18C458.78 330.18 460.56 311.8 466.49 307.65C472.42 303.5 451.66 295.2 451.66 295.2Z" fill="#A0616A"/>
<path d="M644.34 295.2C644.34 295.2 649.09 308.25 660.34 310.03C671.59 311.81 678.13 314.77 678.13 314.77L651.45 331.96L637.22 330.18C637.22 330.18 635.44 311.8 629.51 307.65C623.58 303.5 644.34 295.2 644.34 295.2Z" fill="#A0616A"/>
<path d="M514.5 180.18C514.5 180.18 507.39 183.74 505.02 190.86C505.02 190.86 492.02 195.01 484.86 206.27C484.86 206.27 475.96 215.76 474.78 220.5C473.6 225.24 460 253.7 460 253.7C460 253.7 446.36 298.17 439.25 302.91C439.25 302.91 461.78 298.17 465.93 320.7C465.93 320.7 471.26 320.7 477.19 299.95C483.12 279.2 497.35 253.7 497.35 253.7C497.35 253.7 502.09 235.92 506.24 232.95C510.39 229.98 516.91 216.35 522.84 219.95C528.77 223.55 567.9 219.35 567.9 219.35C567.9 219.35 591 229.99 591.58 237.1C592.16 244.21 596.32 244.81 596.91 250.74C597.5 256.67 619.44 303.5 619.44 303.5C619.44 303.5 623.59 316.5 624.78 319.5C624.78 319.5 637.78 288.08 655.02 305.87C655.02 305.87 654.42 294.01 649.09 286.87C643.76 279.73 620.63 224.03 620.63 224.03C620.63 224.03 618.26 215.73 615.89 213.36C613.52 210.99 595.13 192.01 588.61 192.01C588.61 192.01 585.06 183.12 580.91 181.93L514.5 180.18Z" fill="#3F3D56"/>
<path d="M461.14 326.03C456.509 327.889 451.476 328.517 446.531 327.853C441.585 327.189 436.896 325.255 432.92 322.24C429.056 319.273 424.824 316.819 420.33 314.94C414.04 312.4 406.52 310.52 404.23 314.77C400.08 322.48 454.62 341.45 454.62 341.45C454.62 341.45 461.74 337.3 461.14 326.03Z" fill="#3F3D56"/>
<path d="M634.86 326.03C639.491 327.889 644.524 328.517 649.469 327.853C654.415 327.189 659.104 325.255 663.08 322.24C666.944 319.273 671.176 316.819 675.67 314.94C681.96 312.4 689.48 310.52 691.77 314.77C695.92 322.48 641.38 341.45 641.38 341.45C641.38 341.45 634.26 337.3 634.86 326.03Z" fill="#3F3D56"/>
<path d="M533.88 82.67C533.66 84.73 532.98 86.96 531.22 88.05C529.78 88.95 527.96 88.88 526.3 89.22C524.557 89.6564 522.941 90.4966 521.583 91.6726C520.224 92.8486 519.162 94.3275 518.48 95.99C517.148 99.3453 516.887 103.03 517.73 106.54C518.122 108.259 518.63 109.949 519.25 111.6C520.99 116.52 523.09 121.4 526.34 125.49C529.113 128.742 532.232 131.682 535.64 134.26C537.75 135.98 539.93 137.73 542.53 138.54C544.293 139.005 546.107 139.247 547.93 139.26C550.18 139.36 552.58 139.43 554.53 138.31C557.53 136.58 558.42 132.76 560.05 129.69C561.43 127.09 563.49 124.88 564.78 122.23C565.697 120.141 566.368 117.953 566.78 115.71L569.55 103.41C570.55 98.94 571.47 93.9 568.96 90.07C568.778 89.7584 568.524 89.4945 568.22 89.3C567.737 89.1096 567.211 89.0577 566.7 89.15C563.512 89.3573 560.332 88.631 557.55 87.06C557.114 86.8345 556.724 86.5292 556.4 86.16C556.001 85.5195 555.76 84.7925 555.7 84.04C555.43 82.5161 555.001 81.0247 554.42 79.59C554.256 79.0729 553.956 78.6098 553.55 78.25C553.124 77.9831 552.641 77.822 552.14 77.78C547.859 77.0854 543.542 76.6347 539.21 76.43C537.79 76.36 535.65 75.79 534.67 77.05C533.69 78.31 534 81.17 533.88 82.67Z" fill="#A0616A"/>
<path opacity="0.1" d="M533.88 82.67C533.66 84.73 532.98 86.96 531.22 88.05C529.78 88.95 527.96 88.88 526.3 89.22C524.557 89.6564 522.941 90.4966 521.583 91.6726C520.224 92.8486 519.162 94.3275 518.48 95.99C517.148 99.3453 516.887 103.03 517.73 106.54C518.122 108.259 518.63 109.949 519.25 111.6C520.99 116.52 523.09 121.4 526.34 125.49C529.113 128.742 532.232 131.682 535.64 134.26C537.75 135.98 539.93 137.73 542.53 138.54C544.293 139.005 546.107 139.247 547.93 139.26C550.18 139.36 552.58 139.43 554.53 138.31C557.53 136.58 558.42 132.76 560.05 129.69C561.43 127.09 563.49 124.88 564.78 122.23C565.697 120.141 566.368 117.953 566.78 115.71L569.55 103.41C570.55 98.94 571.47 93.9 568.96 90.07C568.778 89.7584 568.524 89.4945 568.22 89.3C567.737 89.1096 567.211 89.0577 566.7 89.15C563.512 89.3573 560.332 88.631 557.55 87.06C557.114 86.8345 556.724 86.5292 556.4 86.16C556.001 85.5195 555.76 84.7925 555.7 84.04C555.43 82.5161 555.001 81.0247 554.42 79.59C554.256 79.0729 553.956 78.6098 553.55 78.25C553.124 77.9831 552.641 77.822 552.14 77.78C547.859 77.0854 543.542 76.6347 539.21 76.43C537.79 76.36 535.65 75.79 534.67 77.05C533.69 78.31 534 81.17 533.88 82.67Z" fill="black"/>
<path d="M519.84 204.49C519.84 204.49 517.47 235.92 532.29 241.25C547.11 246.58 534.07 215.16 534.07 215.16L529.32 205.68L519.84 204.49Z" fill="#A0616A"/>
<path d="M570.23 204.49C570.23 204.49 572.6 235.92 557.78 241.25C542.96 246.58 556 215.16 556 215.16L560.75 205.68L570.23 204.49Z" fill="#A0616A"/>
<path opacity="0.1" d="M506.79 99.59L502.05 107.3C502.05 107.3 506.2 133.98 506.79 138.72C507.302 142.14 508.098 145.512 509.17 148.8C509.17 148.8 509.76 163.03 509.76 168.37C509.76 173.71 512.76 182.6 512.76 182.6C513.178 187.64 514.185 192.614 515.76 197.42C518.13 203.94 520.5 211.65 520.5 211.65C520.5 211.65 523.5 203.35 535.32 215.8C536.644 214.457 537.386 212.646 537.386 210.76C537.386 208.874 536.644 207.063 535.32 205.72C535.32 205.72 531.77 189.72 531.77 181.41C531.77 173.1 525.24 133.41 525.24 133.41C525.24 133.41 521 88.29 506.79 99.59Z" fill="black"/>
<path opacity="0.1" d="M583.87 94.81L586.87 98.34C586.87 98.34 590.36 118.52 582.65 144.02L580.28 167.14C580.28 167.14 576.13 186.71 575.54 191.45C574.95 196.19 574.95 196.78 573.76 198.56C573.399 198.976 573.2 199.509 573.2 200.06C573.2 200.611 573.399 201.144 573.76 201.56L570.2 214.56C570.2 214.56 564.87 208.04 554.2 216.34C554.2 216.34 551.2 211.6 553.6 207.45C556 203.3 555.97 201.52 555.38 200.33C554.79 199.14 557.75 193.22 557.75 192.03C557.75 190.84 561.93 163.59 561.93 163.59C561.93 163.59 563.71 136.91 565.49 128.02C566.58 122.55 566.56 110.36 566.37 101.78C566.18 92.84 577 88 583.37 94.28C583.52 94.44 583.7 94.59 583.87 94.81Z" fill="black"/>
<path d="M545.92 85.33C559.02 85.33 569.64 74.7102 569.64 61.61C569.64 48.5098 559.02 37.89 545.92 37.89C532.82 37.89 522.2 48.5098 522.2 61.61C522.2 74.7102 532.82 85.33 545.92 85.33Z" fill="#A0616A"/>
<path opacity="0.1" d="M558.29 26C557.15 29.1828 555.065 31.9415 552.314 33.9072C549.563 35.8728 546.278 36.9518 542.898 36.9996C539.517 37.0474 536.203 36.0619 533.397 34.1749C530.592 32.2878 528.43 29.5892 527.2 26.44C536.46 22.71 545.92 26.03 545.92 26.03C550.65 24.37 554.75 24.52 558.29 26Z" fill="black"/>
<path d="M545.92 27.22C545.92 27.22 500.27 11.22 511.54 88.88C511.54 88.88 521.62 95.4 529.32 91.25C529.32 91.25 523.99 37.3 544.74 39.67C565.49 42.04 561.93 90.07 561.93 90.07C561.93 90.07 573.79 93.62 577.35 87.07C580.91 80.52 576.16 16.59 545.92 27.22Z" fill="#3F3D56"/>
<path opacity="0.1" d="M544.74 36.11C530.5 34.49 528.54 59.38 528.74 75.16C528.91 59.47 531.55 38.16 544.74 39.67C559.55 41.36 561.98 66.33 562.15 80.47C562.32 67.49 560.9 37.96 544.74 36.11Z" fill="black"/>
<path opacity="0.1" d="M511.54 85.32C510.508 78.522 509.917 71.6643 509.77 64.79C509.721 72.8542 510.312 80.9096 511.54 88.88C511.54 88.88 521.62 95.4 529.32 91.25C529.32 91.25 529.2 89.97 529.06 87.82C521.39 91.69 511.54 85.32 511.54 85.32Z" fill="black"/>
<path opacity="0.1" d="M577.35 83.59C574.03 89.67 563.52 87 562.1 86.59C562.03 88.79 561.93 90.11 561.93 90.11C561.93 90.11 573.79 93.66 577.35 87.11C578.08 85.77 578.46 81.98 578.35 76.91C578.25 80.16 577.9 82.59 577.35 83.59Z" fill="black"/>
<path opacity="0.1" d="M885.74 484.45C880.57 485.02 875.55 486.63 870.37 486.95C865.19 487.27 859.5 486.03 856.23 481.95C854.46 479.78 853.58 477.04 852.09 474.67C850.675 472.47 848.742 470.65 846.46 469.37C845.018 472.206 844.197 475.317 844.052 478.495C843.907 481.673 844.442 484.846 845.621 487.801C846.8 490.756 848.596 493.426 850.889 495.631C853.181 497.837 855.918 499.529 858.916 500.593C861.915 501.657 865.105 502.07 868.276 501.803C871.446 501.536 874.523 500.596 877.301 499.045C880.079 497.495 882.495 495.369 884.386 492.811C886.278 490.253 887.602 487.321 888.27 484.21C887.42 484.3 886.58 484.36 885.74 484.45Z" fill="#FDF5FD"/>
<path opacity="0.03" d="M288.59 89.95C281.95 88.6874 275.084 89.4324 268.87 92.09C265.143 93.7467 261.108 94.5985 257.03 94.5899C252.951 94.5813 248.92 93.7124 245.2 92.04C236.51 88.19 225.63 88.27 217.34 92.58C214.875 93.8855 212.129 94.5719 209.34 94.58C198.05 94.58 188.66 83.2 186.7 68.2C188.955 66.557 190.871 64.4922 192.34 62.12C199 51.46 209.21 44.59 220.72 44.59C232.23 44.59 242.36 51.36 248.98 61.91C250.955 65.0976 253.72 67.7213 257.007 69.5275C260.293 71.3336 263.99 72.2611 267.74 72.22H268C277 72.23 284.8 79.44 288.59 89.95Z" fill="#FDF5FD" fill-opacity="0.81"/>
<path opacity="0.9" d="M865.89 607.36C859.25 606.097 852.385 606.842 846.17 609.5C842.443 611.157 838.408 612.008 834.33 612C830.251 611.991 826.22 611.122 822.5 609.45C813.81 605.6 802.93 605.68 794.64 609.99C792.175 611.296 789.429 611.982 786.64 611.99C775.35 611.99 765.96 600.61 764 585.61C766.255 583.967 768.171 581.902 769.64 579.53C776.3 568.87 786.51 562 798.02 562C809.53 562 819.66 568.77 826.28 579.32C828.256 582.508 831.02 585.131 834.307 586.937C837.593 588.744 841.29 589.671 845.04 589.63H845.3C854.3 589.64 862.1 596.85 865.89 607.36Z" fill="#2B004E"/>
<path opacity="0.03" d="M782.92 89.91C779.61 89.2848 776.188 89.6572 773.09 90.98C771.231 91.8074 769.22 92.235 767.185 92.235C765.15 92.235 763.139 91.8074 761.28 90.98C759.082 90.0161 756.7 89.5411 754.3 89.5877C751.9 89.6343 749.539 90.2015 747.38 91.25C746.148 91.9046 744.775 92.248 743.38 92.25C737.74 92.25 733.06 86.58 732.08 79.1C733.202 78.2877 734.159 77.2696 734.9 76.1C738.2 70.78 743.32 67.37 749.06 67.37C754.8 67.37 759.85 70.74 763.15 76C764.135 77.5911 765.514 78.9006 767.154 79.8012C768.794 80.7018 770.639 81.163 772.51 81.14H772.66C777.15 81.07 781 84.67 782.92 89.91Z" fill="#FDF5FD"/>
<path opacity="0.03" d="M231.89 253.59C237.211 252.587 242.71 253.186 247.69 255.31C250.679 256.646 253.916 257.337 257.19 257.337C260.464 257.337 263.701 256.646 266.69 255.31C270.22 253.761 274.043 252.997 277.897 253.071C281.751 253.145 285.543 254.056 289.01 255.74C290.988 256.789 293.191 257.341 295.43 257.35C304.48 257.35 312 248.24 313.57 236.22C311.764 234.898 310.23 233.242 309.05 231.34C303.74 222.8 295.53 217.34 286.3 217.34C277.07 217.34 268.97 222.76 263.66 231.22C262.08 233.769 259.869 235.867 257.242 237.312C254.614 238.757 251.659 239.5 248.66 239.47H248.43C241.17 239.4 234.93 245.18 231.89 253.59Z" fill="#FDF5FD"/>
<g filter="url(#filter0_d_0:1)">
<path d="M525.848 94.5432C523.532 93.8516 521.134 93.4749 518.718 93.4232C512.998 93.2832 506.878 95.2532 503.578 99.9232C501.33 103.294 500.507 107.417 501.288 111.393C502.084 115.332 503.874 119.001 506.488 122.053C507.998 123.657 509.339 125.413 510.488 127.293C512.068 130.293 512.118 133.883 512.548 137.293C513.548 145.413 517.008 153.043 518.378 161.113C519.748 169.183 518.568 178.533 512.198 183.663C511.128 184.523 509.828 185.433 509.738 186.803C509.598 188.993 512.448 189.923 514.638 190.133C521.188 190.753 527.908 191.363 534.268 189.673C536.898 188.973 539.438 187.883 542.118 187.383C548.918 186.113 555.758 188.723 562.568 189.973C567.496 190.787 572.483 191.192 577.478 191.183C578.641 191.287 579.812 191.133 580.908 190.733C581.451 190.52 581.913 190.14 582.225 189.647C582.538 189.155 582.686 188.575 582.648 187.993C582.426 187.239 582.02 186.552 581.468 185.993C578.028 181.743 576.978 176.093 576.038 170.703L572.888 152.593C571.198 142.913 569.628 132.393 574.208 123.703C577.498 117.453 583.568 113.053 587.038 106.903C588.248 105.044 588.794 102.831 588.588 100.623C588.068 97.5332 585.278 95.3232 582.418 94.0332C576.915 91.5646 570.667 91.335 564.998 93.3932C565.098 97.7232 563.998 102.103 563.288 106.393L562.078 113.393C561.462 117.518 560.557 121.595 559.368 125.593C558.936 127.193 558.2 128.693 557.198 130.013C556.13 131.2 554.826 132.151 553.368 132.803C550.212 134.346 546.742 135.14 543.228 135.123C541.707 135.147 540.192 134.913 538.748 134.433C536.422 133.413 534.324 131.938 532.578 130.093C531.966 129.57 531.419 128.976 530.948 128.323C530.45 127.492 530.076 126.593 529.838 125.653C529.028 123.207 528.39 120.708 527.928 118.173C527.628 116.233 527.528 114.263 527.388 112.303C526.998 106.513 526.998 100.113 525.848 94.5432Z" fill="#EF49F2"/>
</g>
<path d="M585.177 94.6516L588.177 98.1816C588.177 98.1816 591.667 118.372 583.957 143.862L581.587 166.982C581.587 166.982 577.437 186.552 576.847 191.292C576.257 196.032 576.247 196.632 575.067 198.412C574.704 198.827 574.504 199.36 574.504 199.912C574.504 200.463 574.704 200.996 575.067 201.412L571.527 214.452C571.527 214.452 566.197 207.922 555.527 216.222C555.527 216.222 552.527 211.482 554.937 207.332C557.347 203.182 557.307 201.402 556.717 200.222C556.127 199.042 559.087 193.102 559.087 191.922C559.087 190.742 563.237 163.462 563.237 163.462C563.237 163.462 565.017 136.782 566.797 127.882C568.577 118.982 567.387 92.3116 567.387 92.3116C567.387 92.3116 576.877 85.7916 585.177 94.6516Z" fill="#A61FA9"/>
<path d="M503.74 100.808L499 108.518C499 108.518 503.15 135.198 503.74 139.938C504.253 143.359 505.053 146.731 506.13 150.018C506.13 150.018 506.72 164.248 506.72 169.578C506.72 174.908 509.72 183.808 509.72 183.808C510.136 188.849 511.143 193.823 512.72 198.628C515.09 205.158 517.47 212.858 517.47 212.858C517.47 212.858 520.47 204.558 532.29 217.008C533.611 215.665 534.351 213.857 534.351 211.973C534.351 210.09 533.611 208.281 532.29 206.938C532.29 206.938 528.73 190.938 528.73 182.628C528.73 174.318 522.21 134.628 522.21 134.628C522.21 134.628 517.97 89.5384 503.74 100.808Z" fill="#A61FA9"/>
<defs>
<filter id="filter0_d_0:1" x="497" y="92" width="95.6305" height="107.215" filterUnits="userSpaceOnUse" color-interpolation-filters="sRGB">
<feFlood flood-opacity="0" result="BackgroundImageFix"/>
<feColorMatrix in="SourceAlpha" type="matrix" values="0 0 0 0 0 0 0 0 0 0 0 0 0 0 0 0 0 0 127 0" result="hardAlpha"/>
<feOffset dy="4"/>
<feGaussianBlur stdDeviation="2"/>
<feComposite in2="hardAlpha" operator="out"/>
<feColorMatrix type="matrix" values="0 0 0 0 0 0 0 0 0 0 0 0 0 0 0 0 0 0 0.25 0"/>
<feBlend mode="normal" in2="BackgroundImageFix" result="effect1_dropShadow_0:1"/>
<feBlend mode="normal" in="SourceGraphic" in2="effect1_dropShadow_0:1" result="shape"/>
</filter>
</defs>
</svg>
