<svg width="917" height="604" viewBox="0 0 917 604" fill="none" xmlns="http://www.w3.org/2000/svg">
<g clip-path="url(#clip0_2:2)">
<path d="M893.582 583.419L884.526 587.226L865.33 554.576L878.697 548.957L893.582 583.419Z" fill="#FFB6B6"/>
<path d="M818.746 591.874L808.902 591.873L804.219 554.412H818.748L818.746 591.874Z" fill="#FFB6B6"/>
<path d="M819.093 602.005L788.821 602.004V601.626C788.821 598.543 790.063 595.587 792.272 593.407C794.482 591.227 797.479 590.002 800.604 590.002H800.604L806.134 585.863L816.45 590.003L819.093 590.003L819.093 602.005Z" fill="#2F2E41"/>
<path d="M899.089 589.905L871.241 601.613L871.091 601.265C869.866 598.429 869.833 595.229 870.999 592.369C872.166 589.509 874.436 587.223 877.31 586.014L877.311 586.014L880.753 580.068L891.889 579.885L894.32 578.863L899.089 589.905Z" fill="#2F2E41"/>
<path d="M809.09 370.166L794.129 460.043L798.2 473.436L792.858 482.922L800.704 566.225L797.519 573.143L806.417 578.557H824.524L825.485 503.142L829.958 492.069V485.967L839.063 439.98L840.739 492.583L843.388 503.673L841.163 511.569L844.07 517.101L868.982 569.877H889.286L887.715 557.942C891.353 556.125 882.254 550.814 881.379 546.885L884.369 540.248L881.379 527.713L878.638 503.218L881.529 451.513L880.169 381.885C873.352 372.868 865.789 365.914 856.417 363.966L809.09 370.166Z" fill="#2F2E41"/>
<path d="M845.523 251.804C856.855 251.804 866.042 242.741 866.042 231.561C866.042 220.381 856.855 211.318 845.523 211.318C834.191 211.318 825.005 220.381 825.005 231.561C825.005 242.741 834.191 251.804 845.523 251.804Z" fill="#FFB6B6"/>
<path d="M760.926 391.401C760.671 390.265 760.671 389.086 760.927 387.949C761.182 386.812 761.688 385.745 762.407 384.821C763.127 383.898 764.042 383.141 765.09 382.605C766.138 382.069 767.292 381.765 768.471 381.717L776.737 354.608L786.292 365.901L776.979 389.913C776.93 391.873 776.154 393.747 774.799 395.181C773.443 396.614 771.601 397.508 769.623 397.691C767.644 397.875 765.666 397.336 764.063 396.177C762.46 395.017 761.344 393.318 760.926 391.401Z" fill="#FFB6B6"/>
<path d="M814.544 279.974L810.839 273.297L806.066 274.869C806.066 274.869 800.796 278.224 793.418 290.888C790.006 296.746 782.629 334.306 782.629 334.306L765.386 379.352L782.965 382.285L797.632 345.162L814.637 309.635L814.544 279.974Z" fill="#CF14C8"/>
<path d="M844.763 369.883C859.21 369.883 873.786 372.689 879.755 382.721C879.599 380.54 879.208 376.757 878.802 373.287L877.308 363.963L878.821 355.413L880.822 353.439L877.239 349.905L879.683 332.059L887.75 290.017C888.383 286.709 887.889 283.288 886.347 280.286C884.805 277.284 882.301 274.868 879.223 273.415L871.473 269.738L858.909 258.241L836.182 258.073L828.767 267.583L809.249 274.124L812.525 340.993L810.377 345.937C810.859 346.373 811.874 347.305 812.424 347.905C813.202 348.754 812.211 353.126 811.551 355.656L810.644 362.397L813.5 364.41L809.787 368.736L809.045 374.228C812.731 373.368 828.667 369.883 844.763 369.883Z" fill="#6F1286"/>
<path d="M850.772 250.813C850.86 250.623 850.947 250.432 851.034 250.24C851.001 250.241 850.968 250.246 850.934 250.247L850.772 250.813Z" fill="#2F2E41"/>
<path d="M866.612 212.238C865.638 211.331 864.372 210.791 863.035 210.712C861.708 210.754 860.362 211.937 860.637 213.218C858.2 208.961 854.321 205.686 849.681 203.97C845.041 202.253 839.936 202.204 835.262 203.831C831.965 204.978 828.731 207.275 827.973 210.643C827.9 211.527 827.632 212.385 827.19 213.158C826.807 213.571 826.309 213.864 825.759 214.001C825.209 214.139 824.63 214.115 824.093 213.932L824.061 213.922C823.877 213.86 823.679 213.854 823.492 213.905C823.305 213.955 823.137 214.06 823.011 214.205C822.885 214.351 822.806 214.53 822.784 214.72C822.762 214.911 822.799 215.103 822.889 215.272L823.822 216.989C822.646 217.248 821.424 217.222 820.26 216.915C820.067 216.864 819.862 216.875 819.675 216.944C819.488 217.013 819.327 217.137 819.214 217.3C819.102 217.463 819.043 217.656 819.046 217.854C819.049 218.051 819.114 218.242 819.231 218.402C820.782 220.495 822.807 222.202 825.144 223.387C827.481 224.572 830.066 225.203 832.694 225.229C836.422 225.206 840.188 223.939 843.817 224.784C845.22 225.112 846.532 225.745 847.655 226.637C848.778 227.53 849.685 228.659 850.308 229.942C850.931 231.226 851.255 232.63 851.256 234.053C851.258 235.476 850.936 236.881 850.315 238.166C851.43 236.963 853.584 237.248 854.724 238.427C855.249 239.058 855.638 239.789 855.865 240.575C856.092 241.36 856.153 242.183 856.045 242.992C855.741 245.472 854.994 247.879 853.841 250.103C858.249 249.969 862.51 248.503 866.047 245.904C869.585 243.305 872.228 239.697 873.621 235.568C875.014 231.439 875.088 226.988 873.835 222.816C872.582 218.644 870.06 214.952 866.612 212.238H866.612Z" fill="#2F2E41"/>
<path d="M203.487 136.659C231.66 136.659 254.499 114.126 254.499 86.3298C254.499 58.5339 231.66 36.001 203.487 36.001C175.313 36.001 152.474 58.5339 152.474 86.3298C152.474 114.126 175.313 136.659 203.487 136.659Z" fill="#FC63FF"/>
<path d="M60.111 236.043C34.5146 180.184 35.4584 109.381 75.183 62.2452C88.4732 127.607 124.768 186.224 177.647 227.725C198.099 243.657 222.528 259.277 228.114 284.389C231.591 300.014 226.663 316.541 218.144 330.152C209.625 343.763 197.749 354.959 186.009 365.994L184.692 369.77C133.607 334.875 85.7073 291.901 60.111 236.043Z" fill="#F2F2F2"/>
<path d="M76.2887 62.9267C67.1466 112.316 73.9381 164.907 96.1592 210.158C100.963 219.941 106.7 229.452 114.38 237.32C122.064 245.192 131.251 250.147 141.819 253.192C151.481 255.975 161.69 257.718 170.498 262.769C179.781 268.094 185.543 277.029 187.787 287.275C190.533 299.811 188.55 312.573 186.171 324.987C183.529 338.77 180.564 353.045 184.392 366.901C184.856 368.58 182.188 369.192 181.725 367.515C175.065 343.409 188.014 319.633 186.204 295.397C185.359 284.088 181.055 272.961 171.227 266.409C162.632 260.679 152.106 258.872 142.298 256.138C132 253.267 122.752 248.881 114.883 241.605C106.833 234.163 100.707 224.853 95.6708 215.234C84.3121 193.541 76.8243 169.641 72.8627 145.577C68.3073 117.919 68.5809 89.6962 73.6717 62.1294C73.9875 60.4233 76.6024 61.2318 76.2887 62.9267H76.2887Z" fill="white"/>
<path d="M88.1499 195.825C79.8574 198.447 70.8903 198.076 62.8499 194.777C54.8094 191.478 48.2193 185.467 44.2564 177.817C43.4599 176.267 45.8648 174.973 46.6623 176.525C50.3393 183.656 56.4786 189.254 63.9722 192.311C71.4658 195.368 79.8201 195.681 87.5272 193.194C89.2027 192.656 89.8158 195.29 88.1499 195.825H88.1499Z" fill="white"/>
<path d="M136.732 252.417C145.018 236.874 147.062 218.82 142.455 201.856C141.998 200.176 144.665 199.563 145.122 201.242C149.882 218.904 147.717 237.687 139.058 253.843C138.231 255.382 135.91 253.948 136.732 252.417H136.732Z" fill="white"/>
<path d="M71.8277 118.797C75.2505 118.442 78.5304 117.254 81.3728 115.339C84.2151 113.425 86.5311 110.844 88.1125 107.828C88.9187 106.279 91.2395 107.715 90.4385 109.254C88.6755 112.578 86.1144 115.425 82.9787 117.547C79.8431 119.67 76.2284 121.002 72.4504 121.428C72.0977 121.497 71.7314 121.432 71.4259 121.245C71.1204 121.057 70.8986 120.762 70.8057 120.419C70.725 120.071 70.7871 119.705 70.9785 119.401C71.1698 119.097 71.475 118.88 71.8277 118.797V118.797Z" fill="white"/>
<path d="M285.557 62.7923C285.081 63.7736 284.606 64.7549 284.142 65.7563C277.818 78.9818 272.593 92.6923 268.52 106.753C268.187 107.835 267.867 108.936 267.567 110.026C258.119 144.003 255.147 179.416 258.803 214.464C260.27 228.409 262.811 242.223 266.403 255.788C271.365 274.521 278.255 294.443 276.701 313.149C276.561 315.102 276.298 317.045 275.915 318.966L189.463 371.062C189.207 371.084 188.961 371.125 188.703 371.146L185.348 373.382C185.113 372.695 184.885 371.978 184.65 371.291C184.512 370.893 184.393 370.484 184.256 370.086C184.17 369.817 184.085 369.547 183.992 369.31C183.963 369.22 183.935 369.13 183.918 369.06C183.825 368.822 183.764 368.592 183.683 368.373C182.395 364.367 181.132 360.345 179.896 356.307C179.884 356.288 179.884 356.288 179.891 356.256C170.552 325.465 163.737 293.634 162.035 261.795C161.984 260.837 161.92 259.86 161.909 258.878C161.222 244.522 161.726 230.135 163.416 215.86C164.366 208.046 165.717 200.285 167.463 192.607C172.013 172.774 179.696 153.771 190.232 136.295C211.239 101.458 243.306 73.6377 282.551 63.5351C283.555 63.2774 284.541 63.0306 285.557 62.7923Z" fill="#F2F2F2"/>
<path d="M286.033 63.992C248.593 97.9964 221.923 144.022 212.051 193.351C209.917 204.016 208.693 215.017 210.023 225.862C211.354 236.711 215.666 246.125 222.246 254.833C228.262 262.794 235.35 270.25 239.3 279.515C243.463 289.281 242.611 299.838 238.15 309.352C232.692 320.992 223.321 330.004 213.846 338.502C203.325 347.938 192.247 357.575 186.848 370.912C186.193 372.528 183.69 371.432 184.343 369.818C193.737 346.615 218.584 335.323 231.93 314.896C238.157 305.365 241.51 293.924 237.661 282.854C234.295 273.174 226.993 265.479 220.831 257.47C214.361 249.061 209.653 240.065 207.81 229.582C205.924 218.858 206.715 207.786 208.563 197.114C212.732 173.046 221.339 149.515 232.86 127.949C246.101 103.159 263.543 80.7875 284.43 61.8009C285.723 60.6262 287.318 62.8251 286.033 63.992L286.033 63.992Z" fill="white"/>
<path d="M214.402 177.149C206.181 174.317 199.248 168.694 194.841 161.284C190.435 153.874 188.841 145.16 190.345 136.698C190.656 134.987 193.365 135.382 193.055 137.096C191.639 144.973 193.124 153.09 197.242 159.982C201.36 166.874 207.839 172.086 215.511 174.679C217.177 175.244 216.059 177.711 214.402 177.149H214.402Z" fill="white"/>
<path d="M218.657 251.193C234.758 243.704 247.407 230.503 254.082 214.222C254.742 212.609 257.245 213.704 256.586 215.316C249.608 232.245 236.417 245.956 219.644 253.713C218.045 254.451 217.067 251.927 218.657 251.193L218.657 251.193Z" fill="white"/>
<path d="M248.376 105.951C251.326 107.701 254.67 108.701 258.108 108.86C261.545 109.02 264.97 108.335 268.073 106.866C269.662 106.108 270.638 108.634 269.06 109.386C265.624 110.993 261.841 111.745 258.042 111.577C254.244 111.409 250.545 110.326 247.268 108.422C246.944 108.268 246.691 107.998 246.562 107.667C246.432 107.336 246.435 106.969 246.57 106.64C246.719 106.313 246.992 106.058 247.33 105.929C247.668 105.8 248.044 105.808 248.376 105.951V105.951Z" fill="white"/>
<path d="M490.217 174.859C464.62 119 465.564 48.197 505.289 1.06116C518.579 66.4226 554.874 125.04 607.752 166.541C628.204 182.473 652.633 198.093 658.22 223.205C661.697 238.83 656.769 255.357 648.25 268.968C639.73 282.579 627.855 293.775 616.115 304.81L614.798 308.586C563.712 273.691 515.813 230.717 490.217 174.859Z" fill="#F2F2F2"/>
<path d="M506.394 1.7427C497.252 51.1324 504.044 103.723 526.265 148.974C531.069 158.757 536.805 168.268 544.485 176.136C552.169 184.008 561.356 188.963 571.924 192.008C581.586 194.791 591.795 196.534 600.603 201.585C609.887 206.91 615.648 215.845 617.893 226.091C620.639 238.627 618.655 251.389 616.276 263.803C613.635 277.586 610.67 291.861 614.497 305.717C614.961 307.396 612.294 308.008 611.831 306.331C605.171 282.225 618.119 258.449 616.309 234.213C615.465 222.904 611.161 211.777 601.332 205.225C592.738 199.495 582.211 197.688 572.404 194.954C562.106 192.083 552.858 187.697 544.988 180.421C536.938 172.979 530.813 163.669 525.776 154.05C514.418 132.357 506.93 108.457 502.968 84.393C498.413 56.7351 498.686 28.5122 503.777 0.945334C504.093 -0.760754 506.708 0.0478022 506.394 1.7427H506.394Z" fill="white"/>
<path d="M518.255 134.641C509.963 137.263 500.996 136.892 492.955 133.593C484.915 130.294 478.325 124.283 474.362 116.633C473.565 115.083 475.97 113.789 476.768 115.341C480.445 122.472 486.584 128.07 494.078 131.127C501.571 134.184 509.926 134.497 517.633 132.01C519.308 131.472 519.921 134.106 518.255 134.641V134.641Z" fill="white"/>
<path d="M566.837 191.233C575.124 175.69 577.167 157.636 572.561 140.672C572.103 138.992 574.771 138.379 575.228 140.058C579.988 157.72 577.822 176.503 569.163 192.659C568.337 194.198 566.015 192.764 566.837 191.233H566.837Z" fill="white"/>
<path d="M501.933 57.6127C505.356 57.2578 508.636 56.0697 511.478 54.1552C514.321 52.2406 516.637 49.6595 518.218 46.6437C519.024 45.0947 521.345 46.5308 520.544 48.0697C518.781 51.3937 516.22 54.2411 513.084 56.3633C509.949 58.4855 506.334 59.8177 502.556 60.2437C502.203 60.3133 501.837 60.2478 501.532 60.0606C501.226 59.8733 501.004 59.5782 500.911 59.2354C500.831 58.8867 500.893 58.5206 501.084 58.2167C501.275 57.9129 501.581 57.6958 501.933 57.6127V57.6127Z" fill="white"/>
<path d="M715.663 1.60831C715.187 2.5896 714.712 3.5709 714.247 4.57226C707.923 17.7978 702.699 31.5083 698.625 45.5685C698.293 46.6506 697.973 47.7522 697.672 48.8415C688.225 82.819 685.253 118.232 688.908 153.28C690.376 167.225 692.917 181.039 696.509 194.604C701.471 213.337 708.361 233.259 706.806 251.965C706.666 253.918 706.404 255.861 706.02 257.782L619.569 309.878C619.312 309.899 619.067 309.941 618.809 309.962L615.454 312.198C615.219 311.511 614.99 310.794 614.756 310.107C614.618 309.709 614.499 309.3 614.361 308.902C614.275 308.633 614.19 308.363 614.097 308.126C614.068 308.036 614.041 307.946 614.024 307.876C613.931 307.638 613.87 307.408 613.789 307.189C612.5 303.183 611.238 299.161 610.002 295.123C609.99 295.104 609.99 295.104 609.997 295.072C600.658 264.281 593.842 232.45 592.14 200.611C592.089 199.653 592.026 198.676 592.014 197.694C591.328 183.338 591.832 168.951 593.521 154.676C594.472 146.862 595.822 139.101 597.568 131.422C602.118 111.59 609.802 92.5872 620.337 75.1105C641.345 40.274 673.411 12.4537 712.656 2.35112C713.661 2.09339 714.646 1.84656 715.663 1.60831Z" fill="#F0F0F0"/>
<path d="M716.139 2.807C678.699 36.8114 652.028 82.8366 642.157 132.166C640.022 142.831 638.798 153.832 640.129 164.677C641.46 175.526 645.771 184.94 652.352 193.648C658.368 201.609 665.456 209.065 669.405 218.33C673.568 228.096 672.716 238.653 668.256 248.167C662.798 259.807 653.426 268.819 643.951 277.317C633.431 286.753 622.352 296.39 616.953 309.727C616.299 311.343 613.796 310.247 614.449 308.633C623.842 285.43 648.69 274.138 662.035 253.711C668.262 244.18 671.616 232.739 667.767 221.669C664.401 211.989 657.098 204.294 650.937 196.285C644.467 187.876 639.759 178.88 637.915 168.397C636.029 157.673 636.82 146.601 638.669 135.929C642.837 111.861 651.444 88.3302 662.966 66.7636C676.207 41.9744 693.648 19.6025 714.536 0.615873C715.829 -0.558752 717.423 1.64009 716.138 2.80703L716.139 2.807Z" fill="white"/>
<path d="M644.508 115.965C636.287 113.133 629.354 107.51 624.947 100.1C620.54 92.6904 618.947 83.9763 620.451 75.5143C620.761 73.8031 623.471 74.1985 623.16 75.9119C621.745 83.7892 623.23 91.9063 627.348 98.798C631.466 105.69 637.945 110.902 645.616 113.495C647.283 114.06 646.165 116.527 644.508 115.965H644.508Z" fill="white"/>
<path d="M648.763 190.009C664.864 182.52 677.513 169.319 684.187 153.038C684.847 151.425 687.351 152.52 686.692 154.132C679.714 171.061 666.522 184.772 649.75 192.529C648.15 193.267 647.172 190.743 648.763 190.009L648.763 190.009Z" fill="white"/>
<path d="M678.482 44.7672C681.431 46.517 684.775 47.5166 688.213 47.6763C691.651 47.836 695.075 47.1508 698.178 45.6822C699.767 44.9244 700.744 47.4495 699.165 48.2024C695.729 49.8092 691.947 50.5614 688.148 50.3933C684.349 50.2252 680.65 49.1418 677.374 47.2378C677.05 47.0839 676.797 46.814 676.667 46.483C676.538 46.152 676.541 45.7847 676.676 45.4558C676.824 45.1294 677.097 44.874 677.435 44.745C677.774 44.6161 678.15 44.6241 678.482 44.7672Z" fill="white"/>
<path d="M163.977 589.124L173.426 596.344L210.164 602.633L250.998 502.488C250.998 502.488 276.004 425.309 346.022 441.099L571.077 437.151C571.077 437.151 640.177 430.164 651.597 462.316C653.76 468.405 712.111 602.94 712.111 602.94L753.023 597.243L748.12 482.546L650.951 260.013L482.055 249.609L308.012 261.494L163.977 589.124Z" fill="#3F3D56"/>
<path d="M351.023 448.006C386.93 448.006 416.039 419.288 416.039 383.862C416.039 348.436 386.93 319.717 351.023 319.717C315.116 319.717 286.007 348.436 286.007 383.862C286.007 419.288 315.116 448.006 351.023 448.006Z" fill="#2F2E41"/>
<path d="M569.076 448.006C604.984 448.006 634.092 419.288 634.092 383.862C634.092 348.436 604.984 319.717 569.076 319.717C533.169 319.717 504.06 348.436 504.06 383.862C504.06 419.288 533.169 448.006 569.076 448.006Z" fill="#2F2E41"/>
<path d="M275.004 173.665L301.774 168.486C301.774 168.486 503.328 140.112 630.725 173.665L621.089 200.31L284.006 198.336L275.004 173.665Z" fill="#E6E6E6"/>
<path d="M546.76 311.329H375.709C354.94 311.329 336.991 297.141 333.029 277.592L314.309 185.22C313.895 183.205 313.912 181.126 314.358 179.117C314.804 177.107 315.67 175.212 316.9 173.552C318.187 171.81 319.824 170.347 321.708 169.256C323.591 168.164 325.683 167.465 327.852 167.204C418.066 156.156 507.398 156.138 593.367 167.147C595.506 167.405 597.567 168.095 599.424 169.174C601.281 170.252 602.893 171.696 604.16 173.415C605.382 175.051 606.25 176.918 606.71 178.9C607.17 180.882 607.211 182.936 606.832 184.934L589.552 277.022C585.822 296.901 567.825 311.329 546.76 311.329Z" fill="#F363FF"/>
<path d="M198.915 188.704L199.66 175.485C199.776 173.426 200.396 171.425 201.467 169.654C202.539 167.882 204.029 166.393 205.81 165.315C216.61 158.778 245.744 144.386 282.922 151.93C285.532 152.463 287.913 153.776 289.741 155.692C291.569 157.607 292.754 160.03 293.137 162.633L294.132 169.511L198.915 188.704Z" fill="#3F3D56"/>
<path d="M723.185 188.704L627.968 169.511L629.567 158.462C629.752 157.157 630.328 155.936 631.221 154.957C632.114 153.977 633.283 153.284 634.579 152.966C677.455 142.35 710.274 161.202 719.311 167.233C720.169 167.807 720.881 168.569 721.393 169.458C721.905 170.347 722.203 171.341 722.264 172.362L723.185 188.704Z" fill="#3F3D56"/>
<path d="M168.683 597.745C166.388 597.769 164.135 597.144 162.189 595.943C136.694 581.255 120.8 554.338 114.984 515.963C110.179 484.265 112.185 444.478 120.946 397.707C136.479 314.786 169.034 231.903 182.31 200.116C184.068 195.921 186.801 192.192 190.288 189.229C193.775 186.266 197.919 184.153 202.385 183.06C229.754 176.418 277.531 165.277 290.008 165.277C307.107 165.277 316.359 181.157 316.45 181.318L316.502 181.449L331.518 245.693V246.62C339.802 274.274 333.647 294.25 327.02 306.139C319.827 319.044 310.52 325.487 310.427 325.551C295.813 336.527 272.003 371.889 248.307 417.823C223.682 465.558 205.428 512.66 199.477 543.821C192.193 581.962 181.516 593.638 173.842 596.717C172.207 597.387 170.454 597.737 168.683 597.745V597.745Z" fill="#E6E6E6"/>
<path d="M541.121 303.434H379.502C369.963 303.421 360.724 300.141 353.364 294.155C346.004 288.168 340.979 279.846 339.147 270.61L321.459 180.772C321.067 178.783 321.091 176.736 321.532 174.758C321.972 172.779 322.819 170.91 324.02 169.267C325.222 167.623 326.751 166.241 328.516 165.204C330.28 164.166 332.241 163.497 334.277 163.237C419.522 152.492 503.932 152.474 585.164 163.181C587.172 163.451 589.104 164.119 590.843 165.145C592.582 166.171 594.093 167.534 595.283 169.152C596.474 170.77 597.321 172.609 597.772 174.558C598.223 176.507 598.269 178.526 597.908 180.493L581.581 270.056C579.881 279.42 574.895 287.895 567.498 293.998C560.101 300.1 550.764 303.441 541.121 303.434V303.434Z" fill="#E6E6E6"/>
<path d="M753.42 597.746C751.648 597.738 749.894 597.388 748.258 596.716C740.583 593.638 729.906 581.962 722.623 543.821C716.672 512.66 698.418 465.558 673.793 417.823C650.097 371.889 626.287 336.527 611.654 325.538C611.579 325.487 602.272 319.044 595.08 306.139C588.453 294.25 582.297 274.273 590.582 246.62L590.594 245.582L605.614 181.38L605.649 181.318C605.741 181.157 614.993 165.277 632.092 165.277C644.569 165.277 692.346 176.418 719.714 183.06C724.181 184.154 728.324 186.267 731.811 189.229C735.298 192.192 738.031 195.921 739.79 200.116V200.116C753.066 231.903 785.621 314.786 801.153 397.707C809.914 444.478 811.921 484.265 807.116 515.963C801.3 554.338 785.405 581.255 759.875 595.965C757.94 597.154 755.7 597.772 753.42 597.746V597.746Z" fill="#E6E6E6"/>
<path d="M351.023 411.493C372.567 411.493 390.032 394.262 390.032 373.007C390.032 351.751 372.567 334.52 351.023 334.52C329.478 334.52 312.013 351.751 312.013 373.007C312.013 394.262 329.478 411.493 351.023 411.493Z" fill="#3F3D56"/>
<path d="M351.023 398.664C365.386 398.664 377.029 387.177 377.029 373.007C377.029 358.836 365.386 347.349 351.023 347.349C336.66 347.349 325.016 358.836 325.016 373.007C325.016 387.177 336.66 398.664 351.023 398.664Z" fill="#2F2E41"/>
<path d="M569.076 411.493C590.621 411.493 608.086 394.262 608.086 373.007C608.086 351.751 590.621 334.52 569.076 334.52C547.532 334.52 530.067 351.751 530.067 373.007C530.067 394.262 547.532 411.493 569.076 411.493Z" fill="#3F3D56"/>
<path d="M569.076 398.664C583.439 398.664 595.083 387.177 595.083 373.007C595.083 358.836 583.439 347.349 569.076 347.349C554.713 347.349 543.07 358.836 543.07 373.007C543.07 387.177 554.713 398.664 569.076 398.664Z" fill="#2F2E41"/>
<path d="M436.044 326.625C437.701 326.625 439.044 325.3 439.044 323.665C439.044 322.03 437.701 320.704 436.044 320.704C434.386 320.704 433.043 322.03 433.043 323.665C433.043 325.3 434.386 326.625 436.044 326.625Z" fill="#2F2E41"/>
<path d="M449.047 326.625C450.704 326.625 452.048 325.3 452.048 323.665C452.048 322.03 450.704 320.704 449.047 320.704C447.39 320.704 446.046 322.03 446.046 323.665C446.046 325.3 447.39 326.625 449.047 326.625Z" fill="#2F2E41"/>
<path d="M443.045 337.48C444.703 337.48 446.046 336.155 446.046 334.52C446.046 332.885 444.703 331.559 443.045 331.559C441.388 331.559 440.045 332.885 440.045 334.52C440.045 336.155 441.388 337.48 443.045 337.48Z" fill="#2F2E41"/>
<path d="M455.048 337.48C456.706 337.48 458.049 336.155 458.049 334.52C458.049 332.885 456.706 331.559 455.048 331.559C453.391 331.559 452.048 332.885 452.048 334.52C452.048 336.155 453.391 337.48 455.048 337.48Z" fill="#2F2E41"/>
<path d="M467.051 337.48C468.709 337.48 470.052 336.155 470.052 334.52C470.052 332.885 468.709 331.559 467.051 331.559C465.394 331.559 464.051 332.885 464.051 334.52C464.051 336.155 465.394 337.48 467.051 337.48Z" fill="#2F2E41"/>
<path d="M479.054 337.48C480.712 337.48 482.055 336.155 482.055 334.52C482.055 332.885 480.712 331.559 479.054 331.559C477.397 331.559 476.054 332.885 476.054 334.52C476.054 336.155 477.397 337.48 479.054 337.48Z" fill="#2F2E41"/>
<path d="M462.05 326.625C463.707 326.625 465.051 325.3 465.051 323.665C465.051 322.03 463.707 320.704 462.05 320.704C460.393 320.704 459.049 322.03 459.049 323.665C459.049 325.3 460.393 326.625 462.05 326.625Z" fill="#2F2E41"/>
<path d="M475.053 326.625C476.711 326.625 478.054 325.3 478.054 323.665C478.054 322.03 476.711 320.704 475.053 320.704C473.396 320.704 472.053 322.03 472.053 323.665C472.053 325.3 473.396 326.625 475.053 326.625Z" fill="#2F2E41"/>
<path d="M488.056 326.625C489.714 326.625 491.057 325.3 491.057 323.665C491.057 322.03 489.714 320.704 488.056 320.704C486.399 320.704 485.056 322.03 485.056 323.665C485.056 325.3 486.399 326.625 488.056 326.625Z" fill="#2F2E41"/>
<path d="M474.053 414.947H448.047C446.853 414.947 445.708 414.479 444.864 413.647C444.02 412.814 443.546 411.684 443.546 410.507C443.546 409.329 444.02 408.199 444.864 407.366C445.708 406.534 446.853 406.066 448.047 406.066H474.053C475.247 406.066 476.392 406.534 477.236 407.366C478.08 408.199 478.554 409.329 478.554 410.507C478.554 411.684 478.08 412.814 477.236 413.647C476.392 414.479 475.247 414.947 474.053 414.947Z" fill="#2F2E41"/>
<path d="M301.855 221.908C300.176 221.903 298.548 221.341 297.234 220.312C295.919 219.282 294.994 217.846 294.609 216.234L290.62 199.529C290.169 197.63 290.5 195.632 291.541 193.974C292.582 192.316 294.248 191.133 296.172 190.686C298.096 190.239 300.122 190.564 301.803 191.589C303.485 192.614 304.685 194.256 305.141 196.154L309.129 212.86C309.385 213.941 309.391 215.066 309.145 216.149C308.899 217.233 308.408 218.248 307.708 219.118C307.009 219.988 306.119 220.691 305.105 221.174C304.092 221.657 302.98 221.908 301.855 221.908V221.908Z" fill="#3F3D56"/>
<path d="M621.245 220.921C620.12 220.921 619.009 220.671 617.995 220.188C616.981 219.704 616.091 219.002 615.392 218.131C614.692 217.261 614.201 216.246 613.955 215.163C613.709 214.079 613.715 212.954 613.971 211.873L617.959 195.167C618.415 193.269 619.615 191.627 621.297 190.602C622.978 189.577 625.004 189.252 626.928 189.699C628.852 190.146 630.518 191.329 631.559 192.987C632.6 194.645 632.931 196.643 632.48 198.542L628.491 215.247C628.106 216.859 627.181 218.295 625.866 219.325C624.552 220.354 622.924 220.916 621.245 220.921V220.921Z" fill="#3F3D56"/>
<path d="M246.826 271.218C244.371 271.218 241.976 270.473 239.966 269.083L231.595 263.301C230.02 262.212 228.733 260.765 227.845 259.082C226.957 257.399 226.493 255.53 226.492 253.632V235.925C226.496 232.369 227.93 228.96 230.478 226.446C233.027 223.932 236.482 222.518 240.086 222.514H252.908C256.512 222.518 259.968 223.932 262.516 226.446C265.065 228.96 266.498 232.369 266.502 235.925V253.806C266.499 255.655 266.057 257.476 265.212 259.126C264.367 260.776 263.142 262.207 261.636 263.307L253.921 268.915C251.867 270.411 249.38 271.218 246.826 271.218V271.218Z" fill="#3F3D56"/>
<path d="M252.908 336H240.086C236.482 335.996 233.027 334.582 230.478 332.067C227.93 329.553 226.496 326.144 226.492 322.589V304.881C226.493 302.984 226.957 301.115 227.845 299.432C228.733 297.749 230.02 296.302 231.595 295.213L239.966 289.431C242.017 288.013 244.467 287.267 246.971 287.297C249.475 287.327 251.906 288.132 253.921 289.599L261.636 295.207C263.142 296.306 264.367 297.738 265.212 299.388C266.057 301.037 266.499 302.859 266.502 304.707V322.589C266.498 326.144 265.065 329.553 262.516 332.067C259.968 334.582 256.512 335.996 252.908 336V336Z" fill="#3F3D56"/>
<path d="M292.918 298.994H274.971C273.047 298.993 271.153 298.535 269.447 297.659C267.741 296.783 266.274 295.514 265.171 293.96L259.31 285.7C257.873 283.677 257.117 281.26 257.147 278.789C257.178 276.319 257.994 273.92 259.48 271.932L265.165 264.321C266.279 262.835 267.73 261.627 269.402 260.793C271.074 259.96 272.921 259.524 274.794 259.52H292.918C296.522 259.524 299.978 260.938 302.526 263.453C305.074 265.967 306.508 269.376 306.512 272.932V285.582C306.508 289.138 305.074 292.547 302.526 295.061C299.978 297.575 296.522 298.99 292.918 298.994V298.994Z" fill="#3F3D56"/>
<path d="M217.024 298.994H199.076C195.472 298.99 192.017 297.575 189.468 295.061C186.92 292.547 185.486 289.138 185.482 285.582V272.932C185.486 269.376 186.92 265.967 189.468 263.453C192.017 260.938 195.472 259.524 199.076 259.52H217.2C219.073 259.524 220.92 259.96 222.592 260.793C224.264 261.627 225.715 262.835 226.829 264.321L232.514 271.932C234 273.92 234.817 276.319 234.847 278.789C234.878 281.26 234.121 283.677 232.684 285.7L226.823 293.96C225.72 295.514 224.253 296.783 222.547 297.659C220.842 298.535 218.947 298.993 217.024 298.994V298.994Z" fill="#3F3D56"/>
<path d="M676.103 251.625C688.808 251.625 699.108 241.463 699.108 228.928C699.108 216.393 688.808 206.231 676.103 206.231C663.397 206.231 653.097 216.393 653.097 228.928C653.097 241.463 663.397 251.625 676.103 251.625Z" fill="#3F3D56"/>
<path d="M727.115 303.928C739.821 303.928 750.121 293.766 750.121 281.231C750.121 268.695 739.821 258.533 727.115 258.533C714.409 258.533 704.109 268.695 704.109 281.231C704.109 293.766 714.409 303.928 727.115 303.928Z" fill="#3F3D56"/>
<path d="M676.103 353.27C688.808 353.27 699.108 343.108 699.108 330.572C699.108 318.037 688.808 307.875 676.103 307.875C663.397 307.875 653.097 318.037 653.097 330.572C653.097 343.108 663.397 353.27 676.103 353.27Z" fill="#3F3D56"/>
<path d="M625.09 302.941C637.796 302.941 648.096 292.779 648.096 280.244C648.096 267.708 637.796 257.546 625.09 257.546C612.384 257.546 602.084 267.708 602.084 280.244C602.084 292.779 612.384 302.941 625.09 302.941Z" fill="#3F3D56"/>
<path d="M727.115 296.033C724.148 296.033 721.247 295.165 718.78 293.538C716.312 291.912 714.389 289.6 713.254 286.895C712.118 284.19 711.821 281.214 712.4 278.343C712.979 275.471 714.408 272.834 716.506 270.763C718.604 268.693 721.278 267.284 724.188 266.712C727.099 266.141 730.115 266.434 732.857 267.555C735.598 268.675 737.942 270.572 739.59 273.007C741.239 275.441 742.119 278.303 742.119 281.23C742.114 285.155 740.532 288.918 737.719 291.693C734.907 294.468 731.093 296.029 727.115 296.033V296.033ZM727.115 268.402C724.543 268.402 722.029 269.154 719.891 270.564C717.753 271.973 716.086 273.977 715.102 276.321C714.118 278.665 713.86 281.245 714.362 283.733C714.864 286.222 716.102 288.508 717.921 290.302C719.739 292.096 722.056 293.318 724.578 293.813C727.101 294.308 729.715 294.054 732.091 293.083C734.467 292.112 736.498 290.468 737.927 288.358C739.356 286.248 740.118 283.768 740.118 281.23C740.115 277.829 738.743 274.568 736.306 272.163C733.868 269.758 730.563 268.405 727.115 268.402V268.402Z" fill="#E6E6E6"/>
<path d="M692.179 239.941L662.027 239.52L677.473 213.968L692.179 239.941ZM665.52 237.595L688.742 237.919L677.416 217.915L665.52 237.595Z" fill="#E6E6E6"/>
<path d="M637.093 292.086H613.087V268.402H637.093V292.086ZM615.088 290.112H635.093V270.375H615.088V290.112Z" fill="#E6E6E6"/>
<path d="M688.517 340.763L677.519 329.933L687.218 320.382L685.803 318.985L676.103 328.538L666.401 318.985L664.988 320.382L674.687 329.933L663.689 340.763L665.102 342.16L676.103 331.327L687.104 342.16L688.517 340.763Z" fill="#E6E6E6"/>
<path d="M246.793 72.8679C243.825 72.8679 240.924 71.9997 238.457 70.3732C235.99 68.7467 234.067 66.4348 232.931 63.73C231.795 61.0252 231.498 58.0489 232.077 55.1775C232.656 52.306 234.085 49.6685 236.183 47.5983C238.282 45.5281 240.955 44.1183 243.865 43.5471C246.776 42.976 249.793 43.2691 252.534 44.3895C255.276 45.5099 257.619 47.4071 259.268 49.8414C260.916 52.2757 261.796 55.1376 261.796 58.0653C261.792 61.9898 260.21 65.7523 257.397 68.5274C254.584 71.3025 250.77 72.8634 246.793 72.8679V72.8679ZM246.793 45.2364C244.221 45.2364 241.707 45.9888 239.568 47.3984C237.43 48.8081 235.763 50.8117 234.779 53.1559C233.795 55.5001 233.537 58.0795 234.039 60.5681C234.541 63.0567 235.779 65.3425 237.598 67.1367C239.416 68.9308 241.733 70.1527 244.256 70.6477C246.778 71.1427 249.393 70.8886 251.769 69.9177C254.145 68.9467 256.176 67.3024 257.604 65.1926C259.033 63.0829 259.796 60.6026 259.796 58.0653C259.792 54.664 258.421 51.4031 255.983 48.998C253.545 46.593 250.24 45.2401 246.793 45.2364V45.2364Z" fill="#E6E6E6"/>
<path d="M212.856 48.3545L182.705 47.9338L198.15 22.3815L212.856 48.3545ZM186.198 46.0083L209.42 46.3326L198.094 26.3289L186.198 46.0083Z" fill="#E6E6E6"/>
<path d="M168.478 84.3561H144.472V60.6719H168.478V84.3561ZM146.473 82.3824H166.478V62.6456H146.473V82.3824Z" fill="#E6E6E6"/>
<path d="M190.19 128.452L179.192 117.622L188.89 108.073L187.477 106.675L177.776 116.228L168.074 106.675L166.661 108.073L176.359 117.622L165.362 128.452L166.775 129.849L177.776 119.017L188.776 129.849L190.19 128.452Z" fill="#E6E6E6"/>
<path opacity="0.2" d="M867.65 339.947L828.825 368.776L872.651 349.816L867.65 339.947Z" fill="black"/>
<path d="M149.474 375.474L100.462 377.447L94.4602 344.882L136.47 332.053L149.474 375.474Z" fill="#A0616A"/>
<path d="M131.454 295.662L120.522 284.68L133.926 264.46L156.868 226.784C156.118 225.16 155.886 223.351 156.201 221.595C156.516 219.838 157.365 218.218 158.634 216.948C159.903 215.678 161.533 214.817 163.309 214.481C165.084 214.145 166.921 214.348 168.577 215.064C170.233 215.78 171.629 216.976 172.581 218.492C173.533 220.008 173.997 221.774 173.91 223.555C173.823 225.337 173.189 227.05 172.094 228.469C170.998 229.888 169.492 230.945 167.774 231.501L148.838 271.724L131.454 295.662Z" fill="#A0616A"/>
<path d="M119.344 320.733C118.061 322.694 116.232 324.249 114.076 325.211C111.921 326.174 109.53 326.505 107.189 326.162C104.961 325.903 102.859 325.008 101.14 323.586C99.4204 322.164 98.1595 320.278 97.5117 318.159C97.0345 316.655 96.8955 315.066 97.1045 313.504C97.3134 311.942 97.8653 310.443 98.7217 309.113C106.035 296.95 119.523 280.887 119.658 280.727L119.873 280.471L142.621 285.334L119.344 320.733Z" fill="white" fill-opacity="0.9"/>
<path d="M137.792 589.905L151.384 589.904L157.85 538.179L137.789 538.18L137.792 589.905Z" fill="#A0616A"/>
<path d="M134.324 585.527L161.093 585.526H161.094C165.618 585.526 169.957 587.299 173.156 590.455C176.355 593.611 178.152 597.892 178.153 602.356V602.903L134.325 602.904L134.324 585.527Z" fill="#2F2E41"/>
<path d="M31.9558 584.1L45.3951 586.104L59.6266 535.914L42.0083 532.955L31.9558 584.1Z" fill="#A0616A"/>
<path d="M29.1909 579.259L55.6588 583.206L55.6599 583.207C60.1332 583.874 64.1546 586.267 66.8395 589.86C69.5245 593.452 70.6531 597.95 69.9771 602.363L69.8942 602.904L26.5587 596.442L29.1909 579.259Z" fill="#2F2E41"/>
<path d="M98.4609 367.579L145.472 359.684L160.018 389.266L160.573 582.328L134.771 582.169L123.986 425.909L55.2465 570.296L27.529 567.015L87.9531 412.236C87.9531 412.236 84.627 384.89 95.1596 371.217L98.4609 367.579Z" fill="#2F2E41"/>
<path d="M81.0082 309.297C80.2898 307.168 80.2134 304.878 80.7886 302.707C81.3637 300.536 82.5655 298.576 84.248 297.065L90.9292 291.074L109.765 287.943L121.542 285.831L140.471 339.947L94.4968 360.787C90.4621 359.927 88.8504 357.75 91.1981 353.42L81.0082 309.297Z" fill="#B22AB5"/>
<path d="M123.201 327.558L136.353 319.277L153.632 336.398L186.249 366.336C188.013 365.948 189.856 366.098 191.532 366.766C193.209 367.434 194.64 368.588 195.637 370.075C196.634 371.563 197.15 373.315 197.116 375.098C197.083 376.881 196.501 378.613 195.448 380.063C194.395 381.513 192.921 382.613 191.221 383.219C189.52 383.824 187.674 383.906 185.925 383.454C184.176 383.001 182.608 382.036 181.428 380.685C180.247 379.334 179.51 377.661 179.314 375.888L143.344 349.289L123.201 327.558Z" fill="#A0616A"/>
<path d="M100.845 310.682C99.1654 309.037 98.0018 306.95 97.4929 304.671C96.984 302.391 97.1512 300.015 97.9747 297.827C98.6934 295.73 100.017 293.886 101.782 292.521C103.547 291.156 105.678 290.329 107.913 290.141C109.503 289.991 111.107 290.186 112.613 290.711C114.119 291.236 115.491 292.078 116.633 293.18C127.182 302.755 140.321 319.097 140.452 319.261L140.661 319.521L131.133 340.473L100.845 310.682Z" fill="white" fill-opacity="0.9"/>
<path d="M101.499 281.359C112.918 281.359 122.175 272.226 122.175 260.96C122.175 249.694 112.918 240.561 101.499 240.561C90.0795 240.561 80.8225 249.694 80.8225 260.96C80.8225 272.226 90.0795 281.359 101.499 281.359Z" fill="#A0616A"/>
<path d="M84.7589 290.021C81.5526 290.02 78.3493 289.827 75.1667 289.444L74.7303 289.391L71.3999 271.553C69.9874 263.991 71.5623 256.183 75.8013 249.73C80.0402 243.278 86.6218 238.671 94.195 236.855C94.7004 236.729 95.2313 236.742 95.7292 236.894C96.2272 237.047 96.673 237.331 97.0177 237.717L97.812 237.444C100.853 236.398 104.073 235.953 107.289 236.134C110.504 236.316 113.652 237.12 116.552 238.502C119.452 239.884 122.048 241.816 124.191 244.187C126.335 246.559 127.984 249.324 129.044 252.324L129.241 252.881L123.94 254.705C122.289 255.273 120.786 256.197 119.542 257.41C118.298 258.624 117.344 260.095 116.749 261.718C116.154 263.34 115.933 265.074 116.102 266.791C116.271 268.509 116.826 270.168 117.727 271.647L123.146 280.548L122.569 280.834C110.872 286.784 97.9189 289.931 84.7589 290.021V290.021Z" fill="#2F2E41"/>
<path d="M795.092 375.383C795.331 374.243 795.821 373.168 796.527 372.235C797.233 371.301 798.137 370.532 799.177 369.981C800.217 369.429 801.367 369.11 802.545 369.044C803.724 368.979 804.903 369.169 805.999 369.602L824.803 348.22L828.826 362.386L810.352 380.519C809.493 382.287 808.006 383.683 806.174 384.442C804.342 385.201 802.291 385.271 800.41 384.638C798.529 384.005 796.949 382.713 795.968 381.008C794.988 379.302 794.676 377.301 795.092 375.383H795.092Z" fill="#FFB6B6"/>
<path d="M879.004 281.378L886.708 280.967L887.868 285.798C887.868 285.798 887.753 291.984 880.729 304.843C873.705 317.702 819.28 374.953 819.28 374.953L807.494 361.756L836.627 332.15L854.269 301.12L879.004 281.378Z" fill="#CF14C8"/>
<path d="M1.24732 604H915.753C916.084 604 916.401 603.87 916.635 603.64C916.869 603.409 917 603.096 917 602.769C917 602.443 916.869 602.13 916.635 601.899C916.401 601.669 916.084 601.539 915.753 601.539H1.24732C0.916509 601.539 0.599255 601.669 0.365339 601.899C0.131424 602.13 0 602.443 0 602.769C0 603.096 0.131424 603.409 0.365339 603.64C0.599255 603.87 0.916509 604 1.24732 604Z" fill="white"/>
</g>
<defs>
<clipPath id="clip0_2:2">
<rect width="917" height="604" fill="white"/>
</clipPath>
</defs>
</svg>
